HIERARCHY
ROOT Hips
{
	OFFSET 0.0000 0.0000 0.0000
	CHANNELS 6 Xposition Yposition Zposition Zrotation Xrotation Yrotation
	JOINT Ab
	{
		OFFSET -0.0000 8.1305 -0.0000
		CHANNELS 3 Zrotation Xrotation Yrotation
		JOINT Chest
		{
			OFFSET -0.0000 26.2902 -0.0000
			CHANNELS 3 Zrotation Xrotation Yrotation
			JOINT Neck
			{
				OFFSET -0.0000 26.2902 0.0000
				CHANNELS 3 Zrotation Xrotation Yrotation
				JOINT Head
				{
					OFFSET -0.0000 10.8167 0.0000
					CHANNELS 3 Zrotation Xrotation Yrotation
					End Site
					{
						OFFSET -0.0000 16.7167 0.0000
					}
				}
			}
			JOINT LeftCollar
			{
				OFFSET -0.0000 26.2902 0.0000
				CHANNELS 3 Zrotation Xrotation Yrotation
				JOINT LeftShoulder
				{
					OFFSET 19.6667 -0.0000 0.0000
					CHANNELS 3 Zrotation Xrotation Yrotation
					JOINT LeftElbow
					{
						OFFSET 27.2190 0.0000 0.0000
						CHANNELS 3 Zrotation Xrotation Yrotation
						JOINT LeftWrist
						{
							OFFSET 30.7431 0.0000 0.0000
							CHANNELS 3 Zrotation Xrotation Yrotation
							End Site
							{
								OFFSET 0.0000 -14.7500 0.0000
							}
						}
					}
				}
			}
			JOINT RightCollar
			{
				OFFSET -0.0000 26.2902 0.0000
				CHANNELS 3 Zrotation Xrotation Yrotation
				JOINT RightShoulder
				{
					OFFSET -19.6667 0.0000 0.0000
					CHANNELS 3 Zrotation Xrotation Yrotation
					JOINT RightElbow
					{
						OFFSET -27.2190 0.0000 0.0000
						CHANNELS 3 Zrotation Xrotation Yrotation
						JOINT RightWrist
						{
							OFFSET -30.7431 0.0000 0.0000
							CHANNELS 3 Zrotation Xrotation Yrotation
							End Site
							{
								OFFSET -0.0000 -14.7500 0.0000
							}
						}
					}
				}
			}
		}
	}
	JOINT LeftHip
	{
		OFFSET 11.8000 0.0000 0.0000
		CHANNELS 3 Zrotation Xrotation Yrotation
		JOINT LeftKnee
		{
			OFFSET -0.0000 -39.7832 0.0000
			CHANNELS 3 Zrotation Xrotation Yrotation
			JOINT LeftAnkle
			{
				OFFSET -0.0000 -41.7317 0.0000
				CHANNELS 3 Zrotation Xrotation Yrotation
				End Site
				{
					OFFSET -0.0000 -4.9167 16.7167
				}
			}
		}
	}
	JOINT RightHip
	{
		OFFSET -11.8000 0.0000 0.0000
		CHANNELS 3 Zrotation Xrotation Yrotation
		JOINT RightKnee
		{
			OFFSET -0.0000 -39.7832 0.0000
			CHANNELS 3 Zrotation Xrotation Yrotation
			JOINT RightAnkle
			{
				OFFSET -0.0000 -41.7317 0.0000
				CHANNELS 3 Zrotation Xrotation Yrotation
				End Site
				{
					OFFSET -0.0000 -4.9167 16.7167
				}
			}
		}
	}
}
MOTION
Frames: 13
Frame Time: 0.010000
-10.0805 83.6712 64.9501 352.7064 345.4046 203.2407 359.2590 348.8601 357.5124 356.6519 16.4354 358.0625 343.1615 341.8267 350.0695 9.4557 6.3092 352.2653 336.3707 357.0540 13.9477 341.4032 53.4011 324.1281 14.9167 350.7845 298.1382 93.2418 354.7413 347.5040 26.0035 356.2461 343.7993 49.6546 34.0329 352.3105 339.6866 350.2097 50.8402 271.8362 353.0977 8.9973 357.2304 14.2519 359.0807 357.0304 6.1192 359.3690 347.2830 342.0879 9.8270 322.1517 323.0198 353.8785 19.0136 25.6353 3.9973 354.6949 342.7751 313.6231 
-9.9007 83.4021 63.9010 352.5903 344.7909 203.4832 359.4350 348.6624 357.3927 356.5840 16.2757 357.9319 343.0245 341.6108 350.0402 9.2981 5.9606 352.3229 336.2290 357.0559 13.9062 341.6013 53.4245 324.1792 15.2353 350.6323 298.1985 93.4356 354.7358 347.9207 26.2459 356.2162 343.8674 49.4031 33.9905 352.2106 339.7957 350.3329 50.5720 272.1921 353.0593 9.2816 357.2576 14.1117 359.0687 357.1724 6.4817 359.4699 346.6868 342.4128 9.9383 321.1144 322.5488 352.8335 20.0441 27.0136 3.8822 355.4196 342.8467 313.4676 
-9.7207 83.1798 62.8810 352.5177 344.1762 203.6819 359.7093 348.4992 357.3205 356.4935 16.1507 357.8432 342.8913 341.1521 349.9872 9.0224 5.7038 352.3942 336.0005 357.0344 13.8684 341.9290 53.3692 324.1336 15.5075 350.4929 298.2467 93.6335 354.8870 348.3449 26.5334 356.1719 343.9089 49.0298 33.9428 352.2780 339.8850 350.4318 50.2498 272.3702 352.9342 9.6275 357.2717 13.9204 358.9750 357.3233 6.7971 0.3302 345.8727 343.0328 9.4687 319.7111 321.7484 351.2800 21.6631 29.0839 3.4468 355.9573 342.4115 313.8789 
-9.5153 82.9989 61.8484 352.5611 343.6924 203.8118 0.1428 348.3921 357.3141 356.4287 16.1299 357.8033 342.7603 340.6506 349.9259 8.7258 5.3793 352.4716 335.6740 356.9984 13.7496 341.9300 52.9419 324.5435 15.5224 350.6282 298.1470 94.0025 354.9375 348.5919 26.7346 356.1280 343.8658 48.7553 34.1699 352.5956 339.6979 350.3851 49.6466 272.4089 352.8229 9.7416 357.4539 13.8023 358.8514 357.3627 7.2675 0.7579 345.2912 343.4618 9.5576 318.3738 320.8032 349.6805 23.6770 31.4748 2.8343 356.4221 341.4151 313.9964 
-9.2576 82.8545 60.7778 352.8470 343.3435 203.8605 0.7298 348.2460 357.3918 356.5401 16.2410 357.8107 342.6643 340.2198 349.8971 8.3875 4.9244 352.5810 335.3601 356.9828 13.5174 341.5129 52.4021 325.3431 15.3586 350.8038 298.0137 94.4037 354.8219 348.2457 26.9146 356.0958 343.8296 48.3423 34.4903 353.0416 339.4266 350.3339 49.0125 272.5464 352.8790 9.5250 357.9598 13.7447 359.0599 357.3211 7.6366 0.7569 344.7313 343.8530 9.9283 317.5862 319.8694 348.2765 25.3369 33.6413 2.0729 356.8722 340.7814 314.4778 
-8.9982 82.7460 59.6921 353.2518 343.1227 203.8921 1.3952 348.1579 357.4888 356.8071 16.3592 357.8038 342.7523 339.7562 349.9006 7.7057 4.6212 352.6850 335.0118 356.9928 13.1629 340.8710 51.8995 326.4846 15.1461 350.9294 297.7876 94.6769 354.7190 347.6945 26.9444 356.1059 343.9570 48.2491 34.6230 353.2692 339.0128 350.2249 48.2666 272.6712 352.8431 9.3348 358.6454 13.8057 359.4508 357.2598 7.8470 0.8444 344.1350 344.5775 10.0905 317.2812 319.1119 346.9874 26.4130 35.5033 1.1643 357.3552 340.6365 315.5287 
-8.7439 82.6927 58.6142 353.6148 342.7879 203.8794 1.8850 348.0330 357.5677 357.2327 16.3383 357.7692 342.9439 339.2970 349.9710 6.8143 4.6032 352.8325 334.7074 357.0252 12.8106 340.0958 51.6351 327.6766 15.0879 350.9268 297.7391 94.8745 354.7752 347.5526 26.9230 356.1447 344.1802 48.0757 34.7747 353.3896 338.6285 350.1583 47.6444 272.7463 352.9802 8.9841 359.2180 13.7820 359.9876 357.2235 8.0060 1.1915 342.5476 345.6766 9.9361 317.1001 318.4654 345.7610 27.0906 37.0654 0.4724 357.9748 340.4317 316.4822 
-8.5189 82.6923 57.4990 353.7890 342.4761 203.8313 2.1856 347.9703 357.6012 357.6633 16.2573 357.7055 342.9209 339.1789 350.0341 6.4485 4.4417 352.9512 334.4343 357.0542 12.6193 339.8515 51.5716 328.3747 14.9805 350.9651 297.7651 94.9727 354.8691 347.5011 26.9090 356.1880 344.3013 47.7654 35.3443 353.6876 338.1296 350.0617 46.8487 272.5241 353.1530 8.4314 359.6095 13.8954 0.6683 357.2346 8.0609 1.5295 341.4831 347.0245 9.6463 317.0571 318.1481 344.7329 27.5201 38.3147 0.2281 358.1147 340.1901 317.0320 
-8.3167 82.7415 56.3627 353.7797 342.2250 203.8329 2.3287 348.0011 357.6112 358.0951 16.1202 357.6369 342.7625 339.3765 350.0820 6.3241 4.2453 353.0215 334.3948 357.1086 12.4237 339.4597 51.9884 328.9136 15.1656 350.7912 298.0873 94.8122 354.8607 347.5209 26.8916 356.2247 344.3628 47.3997 35.9257 354.0978 337.5727 349.9754 45.9612 272.6242 353.3827 7.8410 359.8223 14.0935 1.2968 357.3188 8.1179 1.9925 341.4806 348.6712 9.3627 317.0929 318.1560 344.0095 27.8758 39.3248 0.2538 357.4705 340.1588 317.2931 
-8.1232 82.8407 55.2421 353.6594 342.0306 203.8977 2.4078 348.1893 357.5556 358.4132 15.8758 357.5263 342.8460 339.5139 350.2077 6.0973 4.3146 353.1152 334.5771 357.1729 12.4070 339.2643 52.7397 328.9246 15.5322 350.5503 298.7176 94.6625 354.8191 347.8430 26.9595 356.2398 344.4244 46.9674 36.3324 354.4963 337.1578 349.9814 45.2451 272.6076 353.7216 7.6395 359.9445 14.2376 1.5407 357.3917 8.2889 2.9482 341.0568 350.1104 8.7354 317.2004 318.4296 343.7539 28.3017 40.0543 0.7016 356.7671 339.9584 316.8527 
-7.9033 82.9692 54.1192 353.5540 341.7958 204.1656 2.3882 348.3474 357.4021 358.6946 15.5708 357.3314 343.4589 339.6242 350.4493 5.3516 4.4986 353.2348 334.9730 357.2253 12.5014 339.1439 53.6458 328.6528 15.9684 350.3273 299.4949 94.4571 354.7002 348.1828 27.0648 356.2182 344.3908 46.4798 36.6488 355.0706 336.8210 350.0481 44.5380 272.6977 353.8910 7.6086 0.0730 14.1415 1.6168 357.5044 8.7480 3.4084 342.0715 350.8813 8.3542 317.3371 318.8529 343.9224 28.8394 40.5002 0.9041 356.0788 339.5884 316.0909 
-7.6521 83.1396 53.0055 353.4601 341.5612 204.4034 2.3054 348.5228 357.3122 359.0309 15.2913 357.2082 343.8245 339.4712 350.6166 4.8622 4.9050 353.3641 335.3191 357.2517 12.6631 338.8646 54.2193 328.5414 16.1105 350.4297 300.0689 94.6465 354.6064 348.4621 27.1567 356.1769 344.2731 45.8451 37.0349 355.8965 336.5247 350.0991 43.8654 272.9269 354.0873 7.7999 0.1516 13.8434 1.5122 357.6576 9.5013 3.4810 343.3117 351.9832 8.7889 317.7012 319.2012 344.5366 29.3052 40.7630 0.7374 355.4417 339.2866 315.5195 
-7.3938 83.3383 51.9244 353.4211 341.3196 204.6751 2.2430 348.6307 357.2148 359.3354 15.0748 357.0770 344.2366 339.5405 350.7831 4.4568 5.0397 353.4559 335.6381 357.2762 12.7151 338.4191 54.5044 328.6837 15.9287 350.7775 300.4606 94.7014 354.5667 348.3570 27.1984 356.1418 344.1914 45.4247 37.3720 356.5812 336.1038 350.0165 43.3924 273.1137 354.3076 7.9501 0.1930 13.3439 1.4190 357.7938 10.4489 3.5397 346.6767 353.4052 9.5654 318.1136 319.5744 345.2524 29.8012 40.8407 0.4755 354.7855 339.0592 314.9639 
